# xmcd
#
# Track frame offsets:
#	150
#	13908
#	32486
#	50045
#	62943
#	79556
#	91515
#	105365
#	122275
#	139965
#	154272
#
# Disc length: 2266 seconds
#
# Revision: 1
# Processed by: cddbd v1.5.2PL0 Copyright (c) Steve Scherf et al.
# Submitted via: audiograbber 1.83.01
#
DISCID=8208d80b
DTITLE=Various Artist - CDX 023
DYEAR=1992
DGENRE=Country
TTITLE0=Marty Stuart - Burn Me Down
TTITLE1=Little Texas - First Time For Everything
TTITLE2=Hank Williams Jr. - Hotel Whiskey
TTITLE3=The Remmingtons - I Could Love You
TTITLE4=Lee Greenwood - If You'll Let This Fool Back In
TTITLE5=Vince Gill - Take Your Memory With You
TTITLE6=Faron Young - The Memories That Last
TTITLE7=Steve Wariner - Tips Of My Fingers
TTITLE8=Tracy Lawrence - Today's Lonely Fool
TTITLE9=Rob Crosby - Working Woman
TTITLE10=Eddie Rabbitt - You Look Like An Angel
EXTD=
EXTT0=
EXTT1=
EXTT2=
EXTT3=
EXTT4=
EXTT5=
EXTT6=
EXTT7=
EXTT8=
EXTT9=
EXTT10=
PLAYORDER=
